<?xml version="1.0" encoding="UTF-8" standalone="no"?>
<!-- Created with Inkscape (http://www.inkscape.org/) -->

<svg
   width="210mm"
   height="297mm"
   viewBox="0 0 210 297"
   version="1.1"
   id="svg1"
   inkscape:version="1.3.2 (091e20ef0f, 2023-11-25)"
   sodipodi:docname="rotation_vector.svg"
   inkscape:export-filename="rotation_vector.png"
   inkscape:export-xdpi="96"
   inkscape:export-ydpi="96"
   xmlns:inkscape="http://www.inkscape.org/namespaces/inkscape"
   xmlns:sodipodi="http://sodipodi.sourceforge.net/DTD/sodipodi-0.dtd"
   xmlns="http://www.w3.org/2000/svg"
   xmlns:svg="http://www.w3.org/2000/svg">
  <sodipodi:namedview
     id="namedview1"
     pagecolor="#ffffff"
     bordercolor="#000000"
     borderopacity="0.25"
     inkscape:showpageshadow="2"
     inkscape:pageopacity="0.0"
     inkscape:pagecheckerboard="0"
     inkscape:deskcolor="#d1d1d1"
     inkscape:document-units="mm"
     inkscape:zoom="0.52382155"
     inkscape:cx="510.67009"
     inkscape:cy="601.34983"
     inkscape:window-width="1536"
     inkscape:window-height="792"
     inkscape:window-x="0"
     inkscape:window-y="0"
     inkscape:window-maximized="1"
     inkscape:current-layer="layer1" />
  <defs
     id="defs1">
    <rect
       x="38.180942"
       y="341.71943"
       width="708.25647"
       height="196.63185"
       id="rect46" />
    <rect
       x="32.4538"
       y="335.99229"
       width="708.25647"
       height="236.72184"
       id="rect45" />
    <rect
       x="568.89603"
       y="922.06974"
       width="171.81424"
       height="55.362365"
       id="rect44" />
    <rect
       x="368.44609"
       y="881.97975"
       width="89.725213"
       height="41.999036"
       id="rect43" />
    <rect
       x="362.71895"
       y="872.43452"
       width="104.99759"
       height="47.726177"
       id="rect42" />
    <rect
       x="503.98843"
       y="807.52692"
       width="188.99567"
       height="64.907601"
       id="rect41" />
    <rect
       x="267.26659"
       y="169.90519"
       width="175.63233"
       height="72.543789"
       id="rect40" />
    <rect
       x="17.181424"
       y="691.07504"
       width="156.54186"
       height="62.998553"
       id="rect38" />
    <rect
       x="368.44608"
       y="881.97974"
       width="89.725212"
       height="41.999035"
       id="rect43-1" />
  </defs>
  <g
     inkscape:label="Layer 1"
     inkscape:groupmode="layer"
     id="layer1">
    <path
       style="fill:#ff0000;stroke-width:0.140942"
       id="path1"
       d="m 144.46463,15.647934 c -0.944,0.10086 -1.2374,0.67658 -1.54252,1.69856 -0.25952,1.68715 0.33304,3.19828 1.17616,4.50083 0.74424,0.76989 0.89686,0.98705 2.28692,1.50104 0.13058,0.0483 0.22914,-0.18688 0.31551,-0.31386 0.33314,-0.48973 0.42929,-1.14993 0.53037,-1.74628 0.0236,-0.43956 0.0589,-0.62069 -0.009,-1.04355 -0.17388,-1.0894 -1.33926,-2.1085 -2.23036,-1.84844 -0.52618,0.48998 -0.72714,1.28312 -0.87482,2.03122 -0.0897,1.1049 0.24296,1.12364 1.85151,1.24601 0.0764,0.007 0.2927,-1.99442 0.31273,-2.18245 0.0362,-0.43146 0.14806,-2.2129 -0.25001,-2.50496 -0.58538,-0.4295 -1.20094,-0.7968 -1.80142,-1.19519 -0.55408,0.36613 -0.81998,1.14011 -1.10849,1.77988 -0.19135,0.3299 -0.62875,1.50234 -1.06998,1.01455 3.82171,2.55866 0.89807,1.28585 1.61544,0.57728 0.0367,-0.0362 0.38289,-0.24913 0.39544,-0.257 0.51962,-0.28711 1.08877,-0.43533 1.57702,-0.80038 0.0109,-0.002 0.0423,4.6e-4 0.0328,-0.007 -1.60532,-1.15003 -1.21578,-1.69765 -1.91967,-1.01596 -0.19115,0.18514 -0.33773,0.35406 -0.46155,0.60709 -0.17066,1.19036 1.35608,1.43999 2.16744,1.6853 0,0 -1.54194,-1.40377 -1.54194,-1.40377 v 0 c -0.0647,-0.0132 -0.14607,-0.0286 -0.20578,-0.0508 -0.0521,-0.0195 -0.19867,-0.1055 -0.15259,-0.0706 0.50114,0.37951 1.0134,0.73744 1.5201,1.10616 -0.11826,-0.0374 -0.0838,0.007 -0.11783,-0.11525 0.59096,-1.3891 1.68347,0.16598 -0.91369,-2.01583 -0.009,-0.008 -0.0159,0.0202 -0.0239,0.0304 -0.48301,0.36133 -1.05495,0.4873 -1.56083,0.79428 -0.28834,0.18746 -0.58821,0.36914 -0.64988,0.79847 -0.0124,0.0862 -0.0595,0.20978 -0.001,0.26203 0.55127,0.49375 1.16864,0.87133 1.75297,1.307 0.61013,0.0741 0.91592,-0.80799 1.19659,-1.31718 0.20042,-0.42992 0.54186,-1.4274 0.99919,-1.50572 -0.49924,-0.36772 -0.99282,-0.7467 -1.49771,-1.10314 -0.057,-0.0402 0.11246,0.0893 0.15181,0.15296 0.0598,0.0967 0.10846,0.20566 0.14047,0.31991 0.16968,0.60546 0.11153,1.2674 0.0822,1.8892 -0.0652,0.584 -0.098,0.98232 -0.20532,1.55197 -0.0333,0.17673 -0.2303,0.39574 -0.12291,0.52318 0.45489,0.53987 1.09601,0.79624 1.61418,1.24668 0.0367,0.0319 -0.10854,0.0893 -0.13143,0.0423 -0.0437,-0.0895 2.6e-4,-0.20737 3.9e-4,-0.31107 0.10632,-0.61659 0.27224,-1.43096 0.76324,-1.76371 0.68478,0.18254 0.37629,0.11939 -1.32979,-1.03394 -0.0688,-0.0465 0.12896,0.11541 0.17291,0.19416 0.21591,0.38656 0.19178,0.88572 0.17493,1.3233 -0.0795,0.51073 -0.0796,0.6928 -0.26513,1.16729 -0.0579,0.14816 -0.12122,0.29823 -0.21358,0.41861 -0.0623,0.0812 -0.30445,0.0938 -0.23719,0.16893 0.28009,0.31307 2.10373,1.66168 0.96484,0.74747 -0.86146,-1.21432 -1.48688,-2.64847 -1.25553,-4.28972 0.29096,-0.95752 0.56839,-1.42293 1.45471,-1.43484 z" />
    <path
       style="fill:#ff0000;stroke-width:0.140942"
       id="path2"
       d="m 91.698197,47.384964 c 0.72134,0.19156 1.46325,0.43573 2.20484,0.33888 0.55849,-0.18326 0.80691,-0.71336 0.85873,-1.36864 -0.13559,-1.06276 -1.01261,-1.18254 -1.93139,-1.6914 -0.13384,-0.0741 -1.02064,0.45421 -1.14191,0.52168 -0.68686,0.44032 -1.62764,0.87211 -1.90985,1.82766 0.28076,3.21775 2.73936,0.81907 3.39861,0.13179 0.73467,-0.95188 1.21465,-1.60872 0.60243,-2.84472 -0.67847,-0.71297 -0.70738,-0.78712 -2.16862,-1.30604 -0.318,-0.11293 -1.05039,1.51193 -1.16375,1.78518 -0.13087,0.47708 -0.4885,1.18736 -0.25251,1.70957 0.043,0.0952 0.10619,0.18723 0.18733,0.2349 0.66346,0.38979 1.35315,0.71176 2.02973,1.06763 1.09387,-0.46511 2.04031,-1.34896 2.90548,-2.25954 1.06971,-0.88443 -0.24531,-2.68533 -1.5429,-1.80583 -0.0513,0.0506 -0.10255,0.10104 -0.15383,0.15164 0,0 1.62525,1.23316 1.62525,1.23316 v 0 c 0.0444,-0.0352 0.0887,-0.0704 0.13306,-0.10566 0.91638,-0.32376 -2.03214,-1.16762 -1.38043,-1.22895 0.076,-0.007 -0.0232,0.18847 -0.069,0.26162 -0.0662,0.10583 -0.14325,0.20109 -0.21488,0.30165 -0.81926,0.90029 -1.751,1.7852 -2.84349,2.11955 0.4313,0.36648 0.87895,0.70676 1.29389,1.09946 0.0652,0.0617 -0.17171,-0.0341 -0.23554,-0.0979 -0.0578,-0.0577 -0.0885,-0.15229 -0.10323,-0.24076 -0.0749,-0.44854 0.14151,-0.92271 0.25697,-1.32454 0.20623,-0.50122 0.40694,-1.04473 0.79126,-1.39444 0.0842,-0.0767 0.36114,-0.0785 0.28514,-0.16679 -0.50629,-0.58752 -2.0302,-1.49551 -1.12405,-0.94659 0.71316,1.08993 0.24417,1.67114 -0.44993,2.56682 -0.35006,0.35173 -0.45575,0.4891 -0.84594,0.7627 -0.12596,0.0883 -0.25671,0.16812 -0.39219,0.23305 -0.0864,0.0413 -0.34069,0.0116 -0.27024,0.0845 0.41743,0.43227 1.99218,1.63589 1.38788,1.08024 0.12739,-0.82604 1.25148,-1.33565 1.79219,-1.6788 0.22932,-0.11591 0.5706,-0.3126 0.82934,-0.36108 0.0838,-0.0149 0.32237,0.0749 0.25411,0.0149 -2.95884,-2.61539 -1.51724,-1.40476 -1.2858,-0.78902 0.007,0.56158 -0.22197,0.98827 -0.70048,1.09518 -0.73643,0.0339 -1.47038,-0.18226 -2.17437,-0.42518 z" />
    <path
       style="fill:#2b0000;stroke-width:0.355075"
       id="path3"
       d="m 76.737407,89.443904 c 0.74181,-5.65474 0.78214,-11.37819 0.6227,-17.07175 -0.3753,-7.9475 -1.31161,-15.84555 -2.32768,-23.72791 -0.98691,-7.9419 -2.37069,-15.81923 -3.68611,-23.70725 -1.0213,-5.51796 -1.64991,-11.09654 -1.98666,-16.6998103 -0.0839,-1.52682 -0.11238,-3.05566 -0.13497,-4.5844 0,0 -4.58039,-2.38819 -4.58039,-2.38819 v 0 c 0.0513,1.55181 0.10998,3.10345 0.21755,4.65248 0.40406,5.6437503 1.0837,11.2633203 2.11377,16.8244403 1.36648,7.89172 2.81731,15.76989 3.7768,23.72982 1.00073,7.8577 1.89603,15.73407 2.29322,23.65269 0.13862,5.59522 0.11974,11.2488 -0.88896,16.76946 z" />
    <path
       style="fill:#2b0000;stroke-width:0.355075"
       id="path4"
       d="m 54.396127,75.956494 c 4.61325,0.39544 9.22599,0.76696 13.85242,0.98646 6.69414,0.23508 13.39461,-0.0729 20.08853,-0.21931 8.31192,-0.0339 16.612323,0.47182 24.916383,0.77346 5.7382,0.18502 11.47678,0.36434 17.21672,0.48299 2.32477,0.0891 4.65742,-0.0711 6.97643,0.12732 2.17319,0.22854 4.35022,0.4138 6.532,0.52689 1.87071,0.33428 4.99731,2.54696 -2.99372,-2.02916 -0.019,-0.0116 0.0539,0.0317 0.0428,0.0511 -0.0625,0.10863 -0.14866,0.20272 -0.23843,0.28881 -0.15907,0.15245 -0.33706,0.28255 -0.50559,0.42387 -2.80266,1.60237 -5.55249,3.27042 -8.12931,5.23962 -1.42769,1.01604 -2.76117,2.14974 -3.93395,3.46609 0,0 4.45366,2.76367 4.45366,2.76367 v 0 c 1.06128,-1.35384 2.37448,-2.43783 3.74552,-3.44768 2.61511,-1.97747 5.42909,-3.58551 8.27299,-5.17963 3.5007,-3.00042 -1.97181,-4.28529 -4.8863,-4.73058 -2.17272,-0.11161 -4.33963,-0.29977 -6.50449,-0.51928 -2.31262,-0.13741 -4.63078,-0.0299 -6.94628,-0.066 -5.64446,-0.0116 -11.28892,-0.0923 -16.93055,-0.28312 -8.3365,-0.30383 -16.668263,-0.8287 -25.012643,-0.81193 -6.70759,0.12583 -13.42268,0.44887 -20.12901,0.14617 -4.71001,-0.25082 -9.40112,-0.67527 -14.09421,-1.1367 z" />
    <path
       style="fill:#2b0000;stroke-width:0.355075"
       id="path5"
       d="m 144.70571,79.275264 c -0.78888,-2.98295 -2.908,-5.35586 -4.72201,-7.73516 -2.30798,-2.81042 -4.42857,-5.76429 -6.23132,-8.94243 -0.25938,-0.47685 -0.51876,-0.95372 -0.77813,-1.43057 0,0 -4.64709,-2.13731 -4.64709,-2.13731 v 0 c 0.26187,0.47999 0.52376,0.95997 0.78562,1.43994 1.77041,3.22426 3.90023,6.20298 6.23058,9.02399 1.74585,2.2902 3.85245,4.57274 4.64813,7.42799 z" />
    <path
       style="fill:#2b0000;stroke-width:0.355075"
       id="path6"
       d="m 63.767597,1.9125237 c -1.23226,2.87696 -3.15902,5.30867 -5.13034,7.6744 -1.66269,2.2895603 -3.7178,4.2048703 -5.61948,6.2678303 -0.20813,0.20673 -0.41626,0.41347 -0.6244,0.6202 0,0 4.41557,2.78942 4.41557,2.78942 v 0 c 0.20672,-0.21554 0.41343,-0.43108 0.62015,-0.64662 1.8768,-2.08812 3.8783,-4.05847 5.54155,-6.34478 1.9812,-2.3984903 3.92715,-4.8374503 5.32348,-7.6593103 z" />
    <path
       style="fill:#2b0000;stroke-width:0.355075"
       id="path7"
       d="m 67.623217,3.7373137 c 2.3177,3.15651 5.06943,5.92331 7.71516,8.7790803 1.38285,1.47929 2.73077,2.9975 4.14613,4.44419 0,0 4.79165,2.02998 4.79165,2.02998 v 0 c -1.49473,-1.41218 -2.83161,-3.0022 -4.2723,-4.47194 -2.61423,-2.80786 -5.37,-5.4963203 -7.60625,-8.6494603 z" />
    <path
       style="fill:#ffff00;stroke-width:0.355075"
       id="path8"
       d="m 78.903697,76.860554 c 1.63596,-1.63128 3.15807,-3.36701 4.56221,-5.21207 1.20522,-1.76477 2.35626,-3.56621 3.44027,-5.4123 1.08734,-1.62764 1.72431,-3.50444 2.49372,-5.29942 0.67204,-1.59243 1.41961,-3.15894 2.24144,-4.6763 0.67475,-1.43968 1.57401,-2.75025 2.28178,-4.16859 0.53435,-1.04988 1.219,-2.19363 0.78324,-3.39146 -1.64356,-0.9134 -3.23261,-1.93942 -4.93069,-2.7402 -0.62732,-0.29585 -4.10208,1.70202 -4.71341,2.04063 -1.46377,0.89193 -2.94273,1.76356 -4.28281,2.84656 0,0 4.39603,2.8486 4.39603,2.8486 v 0 c 1.31047,-1.06004 2.73614,-1.94921 4.18095,-2.80106 1.03451,-0.5552 2.07848,-1.1309 3.19272,-1.50447 0.26294,-0.0881 0.53122,-0.16698 0.80522,-0.20531 0.20252,-0.0283 0.77829,0.1308 0.61313,0.007 -1.29615,-0.9726 -2.72488,-1.74256 -4.08732,-2.61385 0.99922,0.51182 -0.19061,2.18278 -0.48264,2.85728 -0.68909,1.41991 -1.57279,2.73349 -2.24311,4.16627 -0.83336,1.52957 -1.60613,3.1041 -2.26961,4.71841 -0.7563,1.77604 -1.36117,3.64222 -2.44887,5.24474 -1.08266,1.82089 -2.1867,3.62725 -3.37786,5.37581 -1.39213,1.80933 -2.87704,3.54847 -4.57993,5.05785 z" />
    <path
       style="fill:#ffff00;stroke-width:0.355075"
       id="path9"
       d="m 90.047417,46.105594 c 0.55704,2.268 1.19751,4.51181 1.88296,6.74202 0.44758,1.37595 1.02176,2.69208 1.65269,3.98663 0,0 4.72414,2.19474 4.72414,2.19474 v 0 c -0.65075,-1.28076 -1.28264,-2.56023 -1.7389,-3.93305 -0.69653,-2.18414 -1.31289,-4.39481 -1.80666,-6.63681 z" />
    <path
       style="fill:#00ff00;stroke-width:0.355075"
       id="path10"
       d="m 80.178317,76.149464 c 1.08483,-0.99688 2.13895,-2.02471 3.24704,-2.99524 1.51923,-1.32615 2.90582,-2.80034 4.37348,-4.18456 2.78122,-2.65401 6.03676,-4.70076 9.10816,-6.9697 3.780103,-2.78873 7.535723,-5.61238 11.167403,-8.60382 3.38787,-2.93644 6.72118,-5.93784 10.07585,-8.91409 2.87247,-2.62352 5.71894,-5.27709 8.78461,-7.6616 2.57644,-2.00254 5.2397,-3.88315 7.87313,-5.80562 2.15819,-1.41636 4.17093,-3.04607 6.14661,-4.71725 1.28674,-1.13347 2.66861,-2.14131 3.88088,-3.36285 0.0994,-0.0891 0.60591,-0.60084 0.82758,-0.61696 0.11344,-0.008 0.40319,0.21767 0.30273,0.16254 -1.39566,-0.76566 -2.74684,-1.62476 -4.1884,-2.29423 -0.19956,-0.0926 0.29431,0.33863 0.4011,0.53537 0.14931,0.2752 0.2409,0.57965 0.36135,0.86947 0.77958,2.46898 1.61454,4.91762 2.48685,7.35319 0.50219,1.64791 1.16801,3.23241 1.68879,4.87316 0,0 4.67429,2.26735 4.67429,2.26735 v 0 c -0.50446,-1.66035 -1.18313,-3.24739 -1.69679,-4.90491 -0.88759,-2.42244 -1.77046,-4.84877 -2.46526,-7.33957 -0.0289,-0.0957 -0.38855,-1.46479 -0.60725,-1.61636 -3.18419,-2.20673 -4.06163,-4.1915 -6.22137,-2.09506 -1.19917,1.20656 -2.54976,2.22336 -3.81571,3.35174 -1.95381,1.67002 -3.93902,3.30457 -6.08042,4.71593 -2.62526,1.9371 -5.28928,3.81917 -7.8578,5.83566 -3.04722,2.41635 -5.8851,5.08556 -8.75671,7.71679 -3.34402,2.97875 -6.66318,5.98695 -10.06003,8.90226 -3.61615,2.99531 -7.357453,5.823 -11.146503,8.5818 -3.11816,2.25822 -6.40256,4.31288 -9.23317,6.96025 -1.49084,1.36238 -2.9065,2.8098 -4.43699,4.1266 -1.11768,0.98356 -2.16186,2.05032 -3.29585,3.01429 z" />
    <path
       style="fill:#ffff00;stroke-width:0.355075"
       id="path26"
       d="m 140.03843,21.937694 c -0.5298,2.01795 -1.17187,4.01607 -1.86845,5.98151 -0.52981,1.60329 -1.06682,3.2029 -1.57685,4.81291 -0.38899,1.26262 -0.67644,2.55239 -1.01601,3.82851 -0.40347,1.34194 -0.58347,2.73345 -0.90324,4.09616 -0.21911,1.28739 -0.49555,2.54731 -0.81875,3.81031 0,0 4.58767,2.56013 4.58767,2.56013 v 0 c 0.31672,-1.26945 0.61044,-2.52881 0.81039,-3.8249 0.3218,-1.35654 0.50681,-2.73801 0.89603,-4.07767 0.35655,-1.26396 0.61971,-2.55639 1.01151,-3.81087 0.4867,-1.61426 1.00314,-3.21761 1.51344,-4.82408 0.70094,-1.9881 1.32383,-4.00707 1.98459,-6.00876 z" />
    <path
       style="fill:#ffff00;stroke-width:0.355075"
       id="path27"
       d="m 137.00774,34.331214 c 1.42266,-1.02132 2.84948,-2.0324 4.26126,-3.07002 1.25523,-0.92628 2.35775,-2.04441 3.36207,-3.24691 0.35895,-0.43968 0.61541,-1.07208 1.11958,-1.3761 0.0709,-0.0428 0.16947,-0.0868 0.24231,-0.0474 0.0747,0.0403 0.18217,0.27574 0.10732,0.23587 -1.44641,-0.76952 -2.84414,-1.63236 -4.26621,-2.44856 0.66643,0.93064 0.88185,2.16961 1.16251,3.27709 0.1427,0.66392 0.23927,1.3329 0.3831,1.99652 0,0 4.70299,2.31548 4.70299,2.31548 v 0 c -0.18816,-0.65889 -0.27404,-1.32036 -0.39174,-1.99623 -0.27444,-1.18899 -0.58493,-2.38427 -1.00907,-3.52302 -4.1706,-2.5873 -4.3693,-4.37454 -6.50791,-1.19987 -0.98321,1.16622 -2.04549,2.26432 -3.28292,3.1476 -1.40469,1.03396 -2.79754,2.08822 -4.27583,3.00949 z" />
    <path
       style="fill:#00ffff;stroke-width:0.355075"
       id="path28"
       d="m 81.538287,75.031014 c 1.90556,-0.88698 3.81751,-1.75509 5.67072,-2.7609 2.8811,-1.66603 5.85463,-3.1424 8.89212,-4.47811 3.39492,-1.41645 6.840193,-2.6973 10.274013,-4.00774 2.40164,-1.04303 4.8849,-1.86071 7.30213,-2.8597 1.93406,-0.81219 3.84184,-1.66694 5.69836,-2.65048 1.06373,-0.51036 2.09378,-1.0863 3.13087,-1.6509 0.97037,-0.3799 1.95312,-0.73112 2.90727,-1.15767 1.18912,-0.48756 2.44268,-0.80933 3.61638,-1.33249 1.05166,-0.37683 2.00176,-0.96359 3.07769,-1.26945 0.95403,-0.46941 1.96981,-0.73271 2.9519,-1.12613 0,0 -4.33847,-2.99911 -4.33847,-2.99911 v 0 c -0.96943,0.3864 -1.97652,0.65414 -2.92659,1.09504 -1.06405,0.3623 -2.04302,0.9272 -3.09787,1.31765 -1.19327,0.48018 -2.43042,0.84124 -3.62185,1.3284 -0.98357,0.39397 -1.97519,0.76999 -2.94351,1.19945 -1.02199,0.57621 -2.05782,1.1259 -3.09802,1.66552 -1.8219,0.998 -3.71374,1.83521 -5.62609,2.63368 -2.4117,0.97772 -4.86803,1.83444 -7.25455,2.88012 -3.424833,1.33788 -6.862883,2.64131 -10.264053,4.04274 -3.05584,1.34242 -6.04109,2.83617 -8.95597,4.47914 -1.87925,0.96703 -3.7955,1.84397 -5.7448,2.65031 z" />
    <path
       style="fill:#00ffff;stroke-width:0.355075"
       id="path29"
       d="m 134.33553,58.404254 c 2.0409,-1.15115 3.5791,-2.86904 4.94106,-4.77123 0.58182,-1.08806 2.00129,-2.72363 1.35298,-4.09386 -0.0911,-0.19256 -0.25115,-0.34154 -0.37671,-0.51232 -1.68303,-1.01943 -3.33858,-2.08855 -5.0491,-3.05831 -0.42203,-0.23927 -1.65485,-0.49315 -2.05225,-0.58607 -1.44264,-0.33727 -2.88632,-0.61408 -4.34527,-0.86515 -1.20786,-0.20618 -2.42532,-0.33423 -3.64349,-0.45216 0,0 4.14206,3.16043 4.14206,3.16043 v 0 c 1.1971,0.11806 2.39361,0.24523 3.58011,0.45224 1.46042,0.26083 2.91277,0.53478 4.34748,0.92349 1.9435,0.52656 5.63421,2.60403 -1.79841,-1.63339 0.1556,0.12021 0.65365,0.44869 0.72468,0.6977 0.31796,1.11451 -0.88919,2.39249 -1.30113,3.27246 -1.33291,1.86161 -2.85946,3.51483 -4.91461,4.54005 z" />
    <text
       xml:space="preserve"
       transform="matrix(0.34993997,0,0,0.36028511,-55.314853,-288.0882)"
       id="text41"
       style="font-style:normal;font-variant:normal;font-weight:normal;font-stretch:normal;font-size:42.6667px;font-family:Sans;-inkscape-font-specification:'Sans, Normal';font-variant-ligatures:normal;font-variant-caps:normal;font-variant-numeric:normal;font-variant-east-asian:normal;white-space:pre;shape-inside:url(#rect41);display:inline;fill:#00ff00"><tspan
         x="503.98828"
         y="846.34871"
         id="tspan2">target</tspan></text>
    <text
       xml:space="preserve"
       transform="matrix(0.34993997,0,0,0.36028511,-52.642643,-283.27359)"
       id="text43"
       style="font-style:normal;font-variant:normal;font-weight:normal;font-stretch:normal;font-size:24px;font-family:Sans;-inkscape-font-specification:'Sans, Normal';font-variant-ligatures:normal;font-variant-caps:normal;font-variant-numeric:normal;font-variant-east-asian:normal;white-space:pre;shape-inside:url(#rect43);display:inline;fill:#ffff00"><tspan
         x="368.44531"
         y="903.81747"
         id="tspan3">camera</tspan></text>
    <text
       xml:space="preserve"
       transform="matrix(0.34993997,0,0,0.36028511,14.340157,-283.33403)"
       id="text43-7"
       style="font-style:normal;font-variant:normal;font-weight:normal;font-stretch:normal;font-size:24px;font-family:Sans;-inkscape-font-specification:'Sans, Normal';font-variant-ligatures:normal;font-variant-caps:normal;font-variant-numeric:normal;font-variant-east-asian:normal;white-space:pre;shape-inside:url(#rect43-1);display:inline;fill:#ffff00"><tspan
         x="368.44531"
         y="903.81747"
         id="tspan4">camera</tspan></text>
    <text
       xml:space="preserve"
       transform="matrix(0.34993997,0,0,0.36028511,-57.987053,-282.58579)"
       id="text44"
       style="font-style:normal;font-variant:normal;font-weight:normal;font-stretch:normal;font-size:24px;font-family:Sans;-inkscape-font-specification:'Sans, Normal';font-variant-ligatures:normal;font-variant-caps:normal;font-variant-numeric:normal;font-variant-east-asian:normal;white-space:pre;shape-inside:url(#rect44);display:inline;fill:#00ffff"><tspan
         x="568.89648"
         y="943.90732"
         id="tspan5">direction</tspan></text>
    <path
       style="fill:#00ff00;stroke-width:0.355075"
       id="path44"
       d="m 138.23095,18.917294 c -0.6475,0.0306 -1.29615,0.0289 -1.94423,0.0341 -1.06478,0.0587 -2.12284,-0.0165 -3.18295,-0.11062 -0.84845,-0.0728 -1.69882,-0.12088 -2.55009,-0.1356 -0.61522,-0.0149 -1.2305,-0.0132 -1.84582,-0.0132 -0.6228,3.1e-4 -1.24556,0.007 -1.86835,0.003 -0.54259,-0.003 -1.08521,-0.007 -1.62782,-0.008 -0.47591,-10e-4 -0.95182,-10e-4 -1.42774,-10e-4 -0.31503,-2e-5 -0.15907,-0.0182 -0.46787,0.0552 0,0 4.25025,3.08961 4.25025,3.08961 v 0 c 0.2609,-0.003 0.12154,-0.003 0.41793,-0.003 0.47472,-5e-5 0.94947,-8e-5 1.42417,-0.001 0.53486,-0.001 1.06969,-0.005 1.60451,-0.01 0.62509,-0.003 1.25013,0.003 1.87522,0.001 0.606,3e-5 1.21204,-3.6e-4 1.81802,0.007 0.8259,0.0213 1.65163,0.0486 2.47559,0.1146 1.08126,0.0703 2.16237,0.11508 3.24614,0.10963 0.67843,0.005 1.35733,0.003 2.03527,0.0341 z" />
    <text
       xml:space="preserve"
       transform="matrix(0.40504555,0,0,0.40504555,-2.0069425,33.196006)"
       id="text46"
       style="font-style:normal;font-variant:normal;font-weight:normal;font-stretch:normal;font-size:42.6667px;font-family:Sans;-inkscape-font-specification:'Sans, Normal';font-variant-ligatures:normal;font-variant-caps:normal;font-variant-numeric:normal;font-variant-east-asian:normal;white-space:pre;shape-inside:url(#rect46);display:inline;fill:#2b0000"><tspan
         x="38.181641"
         y="380.54012"
         id="tspan18"><tspan
           style="font-weight:bold;font-size:26.6667px;-inkscape-font-specification:'Sans, Bold';fill:#000080"
           id="tspan6">yaw</tspan><tspan
           style="font-weight:bold;font-size:26.6667px;-inkscape-font-specification:'Sans, Bold'"
           id="tspan7"> = </tspan><tspan
           style="font-weight:bold;font-size:26.6667px;-inkscape-font-specification:'Sans, Bold';fill:#0000ff"
           id="tspan8">atan2</tspan><tspan
           style="font-weight:bold;font-size:26.6667px;-inkscape-font-specification:'Sans, Bold'"
           id="tspan9">(</tspan><tspan
           style="font-weight:bold;font-size:26.6667px;-inkscape-font-specification:'Sans, Bold';fill:#00ffff"
           id="tspan10">direction</tspan><tspan
           style="font-weight:bold;font-size:26.6667px;-inkscape-font-specification:'Sans, Bold'"
           id="tspan11">.</tspan><tspan
           style="font-weight:bold;font-size:26.6667px;-inkscape-font-specification:'Sans, Bold';fill:#8800aa"
           id="tspan12">x</tspan><tspan
           style="font-weight:bold;font-size:26.6667px;-inkscape-font-specification:'Sans, Bold'"
           id="tspan13">, </tspan><tspan
           style="font-weight:bold;font-size:26.6667px;-inkscape-font-specification:'Sans, Bold';fill:#00ffff"
           id="tspan14">direction</tspan><tspan
           style="font-weight:bold;font-size:26.6667px;-inkscape-font-specification:'Sans, Bold'"
           id="tspan15">.</tspan><tspan
           style="font-weight:bold;font-size:26.6667px;-inkscape-font-specification:'Sans, Bold';fill:#cc00ff"
           id="tspan16">z</tspan><tspan
           style="font-weight:bold;font-size:26.6667px;-inkscape-font-specification:'Sans, Bold'"
           id="tspan17">)</tspan></tspan></text>
    <path
       style="fill:#1a1a1a;stroke-width:0.396398"
       id="path51"
       d="m 89.9685,173.87158 c -0.27936,-5.32198 -0.14891,-10.6535 -0.10344,-15.97946 0.14233,-9.77498 0.88041,-19.52799 1.51122,-29.28003 0.3616,-6.89837 0.83579,-13.78814 1.38831,-20.67356 0.11507,-1.3738 0.21588,-2.74865 0.308,-4.12415 0,0 -5.12849,-2.6393 -5.12849,-2.6393 v 0 c -0.0205,1.40824 -0.0467,2.81641 -0.0942,4.22406 -0.23739,6.97706 -0.58052,13.95057 -0.89736,20.92421 -0.58427,9.74327 -1.2912,19.48114 -1.64015,29.23682 -0.17995,5.21388 -0.40381,10.4259 -0.58813,15.63936 z" />
    <path
       style="fill:#1a1a1a;stroke-width:0.396398"
       id="path52"
       d="m 74.027593,109.80308 c 1.738607,-1.1461 3.162947,-2.69955 4.682167,-4.11071 3.32903,-3.08506 7.12891,-5.59276 10.96343,-7.995858 0.0904,-0.05612 2.48325,-1.577886 2.81368,-1.653632 0.34613,-0.07934 0.70239,0.105187 1.05357,0.157784 -1.29136,-0.67745 -2.48085,-1.601655 -3.87406,-2.032348 -0.55604,-0.171898 0.86335,0.784284 1.24846,1.220677 0.54221,0.614439 1.01878,1.283838 1.52818,1.925758 3.35382,4.506429 6.31119,9.283859 9.68154,13.778129 0.82752,1.15561 1.72306,2.25931 2.60048,3.37666 0,0 5.2962,2.26092 5.2962,2.26092 v 0 c -0.94471,-1.14708 -1.93454,-2.25657 -2.81566,-3.45509 -3.48395,-4.42652 -6.50673,-9.16886 -9.72124,-13.790039 -2.81952,-3.935562 -2.90038,-4.102348 -8.59985,-6.675043 -1.05585,-0.4766 -3.08981,1.490624 -3.87949,1.887421 -3.79932,2.524527 -7.63838,5.020724 -11.088592,8.019391 -1.556856,1.33288 -3.009031,2.8751 -4.845118,3.82491 z" />
    <path
       style="fill:#1a1a1a;stroke-width:0.396398"
       id="path53"
       d="m 72.471746,161.59641 c 4.204764,0.99638 8.559214,1.13903 12.858264,1.3371 9.85284,0.31667 19.7129,0.27432 29.56959,0.30618 8.09341,0.0346 16.18265,0.22252 24.26685,-0.23294 2.65615,-0.0395 5.25506,-0.60693 7.88109,-0.92228 2.55916,-0.21922 5.13155,-0.20999 7.69807,-0.21478 0.44547,0.001 0.89094,0.004 1.33641,0.006 0,0 -4.62453,-3.35874 -4.62453,-3.35874 v 0 c -0.43845,0.003 -0.87688,0.007 -1.31531,0.0105 -2.61516,0.0168 -5.23939,-0.028 -7.84657,0.19801 -2.51899,0.35948 -4.99743,1.01178 -7.55306,1.11264 -7.90879,0.64296 -15.83848,0.55192 -23.76847,0.54717 -9.95754,-0.0279 -19.92137,-0.061 -29.86874,-0.55862 -4.45966,-0.30187 -8.99455,-0.54683 -13.304752,-1.82736 z" />
    <path
       style="fill:#1a1a1a;stroke-width:0.396398"
       id="path54"
       d="m 147.31916,171.57858 c 2.34587,-0.14608 4.50434,-1.47031 6.54581,-2.53195 2.76141,-1.36835 5.40433,-2.97356 7.90307,-4.77587 0.62006,-0.59772 2.52991,-1.49504 2.88088,-2.29403 0.0841,-0.19151 0.0771,-0.41118 0.11563,-0.61678 -0.0632,-0.23616 -0.0856,-0.48716 -0.1896,-0.70845 -1.42599,-3.03848 -9.01058,-6.67345 -10.62573,-7.61 -3.77932,-2.10652 -7.90627,-3.38071 -11.97551,-4.77188 -0.36873,-0.12195 -0.73748,-0.24397 -1.10621,-0.36594 0,0 4.54834,3.52644 4.54834,3.52644 v 0 c 0.35194,0.11043 0.70384,0.2208 1.05577,0.33121 4.04621,1.27858 8.08019,2.63267 11.77845,4.76182 -5.33473,-3.12588 -2.70802,-1.67523 -1.38254,-0.667 1.00861,0.76719 2.01719,1.6921 2.65787,2.79518 0.0206,0.0963 0.0898,0.19437 0.0622,0.28883 -0.18633,0.63231 -2.21339,1.76762 -2.67402,2.25394 -2.42913,1.8237 -5.0089,3.45237 -7.75548,4.75816 -2.07186,1.01477 -4.25514,2.2464 -6.63302,2.14319 z" />
    <path
       style="fill:#00ffff;stroke-width:0.396398"
       id="path55"
       d="m 116.43999,116.52109 c 2.37471,2.03616 5.67841,4.79781 8.54822,5.16917 1.25904,-0.32424 1.28759,-1.88408 1.2878,-2.95705 -0.0751,-1.21074 -0.33434,-2.42217 -1.12087,-3.36947 -5.14295,-2.98449 -5.44642,-4.71679 -7.1728,-0.40215 -1.0049,2.67337 3.31061,6.33503 5.78235,4.55165 0.75221,-0.84177 1.20555,-1.90584 1.18384,-3.03699 -0.88318,-2.68444 -4.54108,-4.55845 -7.22036,-3.64279 -0.78737,0.23671 -1.29201,0.63419 -1.30481,1.4782 0,0 5.3681,2.54005 5.3681,2.54005 v 0 c -0.54067,-0.3191 0.5788,-0.61549 0.79416,-0.67101 0.33701,-0.051 0.49176,-0.10128 0.8411,-0.0366 0.12782,0.0237 0.47893,0.19545 0.36825,0.1275 -9.25818,-5.6855 -5.54973,-3.57821 -4.1418,-2.40792 0.23912,0.84193 -0.17545,1.81785 -0.83325,2.37129 -2.04718,-0.19477 -0.11353,-0.0351 4.69194,2.86484 0.0769,0.0464 -0.18109,-0.0424 -0.25096,-0.099 -0.21036,-0.17049 -0.26836,-0.40411 -0.25883,-0.66637 0.006,-0.17625 0.0619,-0.34723 0.0928,-0.52086 0.22417,-0.57635 0.44911,-1.13741 0.83769,-1.62795 0.0748,-0.0945 0.14802,-0.20334 0.25724,-0.25444 0.073,-0.0342 0.30925,0.0641 0.24087,0.0214 -1.5574,-0.97202 -3.15277,-1.88182 -4.72915,-2.82273 0.98042,0.6756 1.22991,1.82331 1.34661,2.9588 0.0366,0.58448 0.18521,2.16724 -0.74536,2.03379 -2.03367,-0.71719 -0.63694,-0.25559 3.98334,2.44902 0.22755,0.13319 -0.45627,-0.26512 -0.67502,-0.4123 -0.59705,-0.40168 -0.70184,-0.52809 -1.24178,-0.98657 -0.1533,-0.1302 -0.30851,-0.25809 -0.46276,-0.38715 z" />
    <path
       style="fill:#00ffff;stroke-width:0.396398"
       id="path56"
       d="m 92.22098,161.17263 c 0.96675,-0.70069 1.74694,-1.6173 2.46546,-2.56215 0.80551,-1.07501 1.56362,-2.18473 2.30932,-3.30193 0.94677,-1.41109 1.92661,-2.79862 2.92108,-4.17656 1.12982,-1.55308 2.11822,-3.19995 3.20441,-4.78226 0.91888,-1.51344 2.07541,-2.85186 3.15824,-4.24417 0.83372,-1.1727 1.8337,-2.20949 2.73961,-3.32273 0.97504,-1.18913 2.08666,-2.25012 3.05094,-3.4517 0.89175,-1.23778 1.92903,-2.3575 2.88328,-3.54426 1.07795,-1.32631 2.13596,-2.67033 3.15148,-4.04525 0.84186,-1.22689 1.79326,-2.36734 2.69422,-3.5498 0.52267,-0.87237 1.25275,-1.5936 1.77484,-2.46289 0.48663,-0.62297 0.75677,-1.37289 1.23303,-2.00202 0.30085,-0.44203 0.15924,-0.20936 0.42191,-0.69981 0,0 -5.12805,-2.93889 -5.12805,-2.93889 v 0 c -0.2294,0.42841 -0.1026,0.21937 -0.38209,0.62646 -0.46916,0.65672 -0.77609,1.4032 -1.25233,2.05518 -0.50519,0.85045 -1.20801,1.56962 -1.70573,2.4284 -0.89495,1.18658 -1.80176,2.3607 -2.64966,3.58156 -1.0238,1.35924 -2.0704,2.7018 -3.15566,4.0126 -0.97534,1.17266 -1.99525,2.30916 -2.88613,3.55021 -0.95959,1.20665 -2.1059,2.23522 -3.06841,3.43671 -0.90336,1.12074 -1.91092,2.15799 -2.73244,3.34542 -1.06781,1.41562 -2.21427,2.77399 -3.14278,4.29136 -1.06986,1.58699 -2.07327,3.21828 -3.20669,4.76229 -0.99747,1.38295 -1.98883,2.76972 -2.95848,4.17229 -0.76296,1.09382 -1.50079,2.20462 -2.3091,3.26566 -0.6713,0.87458 -1.4061,1.75834 -2.38656,2.29522 z" />
    <path
       style="fill:#00ffff;stroke-width:0.396398"
       id="path57"
       d="m 119.4879,115.83704 c 0.0994,1.57939 0.2652,3.16088 0.48151,4.72904 0.15283,1.40294 0.67618,2.70952 1.14164,4.02735 0.37315,0.94008 0.80948,1.85395 1.16012,2.80309 0.31155,0.82905 0.69453,1.62684 1.05906,2.43273 0.0586,0.12703 0.11703,0.25421 0.17551,0.38132 0,0 5.39159,2.41789 5.39159,2.41789 v 0 c -0.0688,-0.10787 -0.13763,-0.21574 -0.20657,-0.32363 -0.30237,-0.82897 -0.7462,-1.59641 -1.09017,-2.40936 -0.3036,-0.97096 -0.72561,-1.90419 -1.17761,-2.81421 -0.44155,-1.30898 -1.05458,-2.56892 -1.23309,-3.95473 -0.25708,-1.51224 -0.39501,-3.06913 -0.42202,-4.59921 z" />
    <path
       style="fill:#00ffff;stroke-width:0.396398"
       id="path58"
       d="m 120.51635,116.0802 c -1.21246,-0.1933 -2.43574,-0.29456 -3.66087,-0.35966 -1.43895,-0.0343 -2.87901,-0.10038 -4.31256,0.0451 -1.45107,0.18058 -2.9054,0.32342 -4.36587,0.39639 -0.70022,-0.0255 -1.37359,0.18708 -2.05193,0.32894 0,0 4.84082,3.36512 4.84082,3.36512 v 0 c 0.65186,-0.13948 1.30404,-0.28343 1.97554,-0.27622 1.4487,-0.10264 2.88852,-0.28498 4.33323,-0.43016 1.43339,-0.0686 2.87012,-0.022 4.30318,0.0446 1.22829,0.0802 2.45842,0.19214 3.66183,0.46212 z" />
    <path
       style="fill:#000080;stroke-width:0.396398"
       id="path59"
       d="m 114.14299,137.8673 c 2.37796,0.4225 6.29307,3.10396 -2.38844,-1.84422 0.96973,0.75916 1.59674,1.85736 2.23344,2.8911 0.7837,1.16614 1.5903,2.30671 2.2562,3.54584 0.63985,1.24982 1.37341,2.43629 2.15557,3.60017 0.64675,1.01101 1.35283,1.98642 1.92432,3.04296 0.73595,1.41957 1.28693,2.92095 1.87252,4.40541 0.51831,1.17357 0.82728,2.40517 0.97883,3.67445 0.0338,0.67002 0.41984,1.31656 0.27964,1.98733 0,0 5.20554,2.82836 5.20554,2.82836 v 0 c 0.23463,-0.76565 -0.004,-1.45564 -0.22237,-2.20554 -0.13048,-1.32538 -0.40679,-2.62138 -0.95587,-3.84338 -0.61525,-1.47211 -1.1232,-2.98896 -1.81359,-4.43028 -0.52039,-1.11071 -1.23714,-2.08965 -1.90847,-3.11118 -0.75881,-1.16846 -1.57391,-2.29519 -2.18759,-3.55324 -0.65748,-1.25286 -1.37749,-2.44842 -2.23664,-3.5779 -0.65367,-1.06196 -1.2672,-2.15998 -2.10168,-3.09517 -2.52715,-1.48948 -4.87365,-3.59555 -7.88553,-3.79784 z" />
    <text
       xml:space="preserve"
       style="font-style:normal;font-variant:normal;font-weight:normal;font-stretch:normal;font-size:7.17529px;font-family:Sans;-inkscape-font-specification:'Sans, Normal';font-variant-ligatures:normal;font-variant-caps:normal;font-variant-numeric:normal;font-variant-east-asian:normal;fill:#ff0000;stroke-width:0.269072"
       x="96.702049"
       y="162.06033"
       id="text60"
       transform="scale(1.0513302,0.95117595)"><tspan
         sodipodi:role="line"
         id="tspan60"
         style="fill:#000080;stroke-width:0.269072"
         x="96.702049"
         y="162.06033">yaw</tspan></text>
    <text
       xml:space="preserve"
       style="font-style:normal;font-variant:normal;font-weight:normal;font-stretch:normal;font-size:10.5707px;font-family:Sans;-inkscape-font-specification:'Sans, Normal';font-variant-ligatures:normal;font-variant-caps:normal;font-variant-numeric:normal;font-variant-east-asian:normal;fill:#ff0000;stroke-width:0.396398"
       x="104.82793"
       y="110.82315"
       id="text63"><tspan
         sodipodi:role="line"
         id="tspan63"
         style="fill:#00ffff;stroke-width:0.396398"
         x="104.82793"
         y="110.82315">direction</tspan></text>
    <text
       xml:space="preserve"
       style="font-style:normal;font-variant:normal;font-weight:normal;font-stretch:normal;font-size:7.05556px;font-family:Sans;-inkscape-font-specification:'Sans, Normal';font-variant-ligatures:normal;font-variant-caps:normal;font-variant-numeric:normal;font-variant-east-asian:normal;white-space:pre;inline-size:142.729;display:inline;fill:#ff00ff;stroke-width:0.264583"
       x="9.5969391"
       y="104.55612"
       id="text66"
       transform="matrix(1.5054154,0,0,1.5054154,-8.5683828,69.747939)"><tspan
         x="9.5969391"
         y="104.55612"
         id="tspan24"><tspan
           style="fill:#ff0000"
           id="tspan19">length</tspan><tspan
           style="fill:#1a1a1a"
           id="tspan20">(</tspan><tspan
           style="fill:#00ffff"
           id="tspan21">direction</tspan><tspan
           style="fill:#1a1a1a"
           id="tspan22">) = 1</tspan><tspan
           style="fill:#800080"
           id="tspan23">
</tspan></tspan><tspan
         x="9.5969391"
         y="113.37557"
         id="tspan33"><tspan
           style="fill:#800080"
           id="tspan25">sin</tspan><tspan
           style="baseline-shift:baseline;opacity:1;vector-effect:none;fill:#2b0000;stop-color:#000000;stop-opacity:1"
           id="tspan26">(</tspan><tspan
           style="fill:#000080"
           id="tspan27">pitch</tspan><tspan
           style="baseline-shift:baseline;opacity:1;vector-effect:none;fill:#2b0000;stop-color:#000000;stop-opacity:1"
           id="tspan28">)=</tspan><tspan
           style="fill:#00ffff"
           id="tspan29">direction</tspan><tspan
           style="baseline-shift:baseline;opacity:1;vector-effect:none;fill:#2b0000;stop-color:#000000;stop-opacity:1"
           id="tspan30">.</tspan><tspan
           style="baseline-shift:baseline;white-space:normal;opacity:1;vector-effect:none;fill:#eeaaff;stroke-width:0.0700042;stop-color:#000000;stop-opacity:1"
           id="tspan31">y</tspan><tspan
           style="baseline-shift:baseline;opacity:1;vector-effect:none;fill:#2b0000;stop-color:#000000;stop-opacity:1"
           id="tspan32">
</tspan></tspan><tspan
         x="9.5969391"
         y="122.19502"
         id="tspan35"><tspan
           style="baseline-shift:baseline;opacity:1;vector-effect:none;fill:#2b0000;stop-color:#000000;stop-opacity:1"
           id="tspan34">
</tspan></tspan><tspan
         x="9.5969391"
         y="131.01447"
         id="tspan44"><tspan
           style="font-weight:bold;-inkscape-font-specification:'Sans, Bold';fill:#000080"
           id="tspan36">pitch</tspan><tspan
           style="font-weight:bold;-inkscape-font-specification:'Sans, Bold'"
           id="tspan37">=</tspan><tspan
           style="font-weight:bold;-inkscape-font-specification:'Sans, Bold';fill:#0000ff"
           id="tspan38">asin</tspan><tspan
           style="font-weight:bold;-inkscape-font-specification:'Sans, Bold'"
           id="tspan39">(</tspan><tspan
           style="font-weight:bold;-inkscape-font-specification:'Sans, Bold';fill:#00ffff"
           id="tspan40">direction</tspan><tspan
           style="font-weight:bold;-inkscape-font-specification:'Sans, Bold'"
           id="tspan41">.</tspan><tspan
           style="font-weight:bold;-inkscape-font-specification:'Sans, Bold';fill:#eeaaff"
           id="tspan42">y</tspan><tspan
           style="font-weight:bold;-inkscape-font-specification:'Sans, Bold'"
           id="tspan43">)</tspan></tspan></text>
    <path
       style="font-variation-settings:normal;opacity:1;vector-effect:none;fill:#1a1a1a;fill-opacity:1;stroke:#1a1a1a;stroke-width:0.307956;stroke-linecap:butt;stroke-linejoin:miter;stroke-miterlimit:4;stroke-dasharray:none;stroke-dashoffset:0;stroke-opacity:1;-inkscape-stroke:none"
       d="m 129.63859,274.82005 55.28956,-78.56938"
       id="path86" />
    <path
       style="font-variation-settings:normal;opacity:1;vector-effect:none;fill:#1a1a1a;fill-opacity:1;stroke:#1a1a1a;stroke-width:0.307956;stroke-linecap:butt;stroke-linejoin:miter;stroke-miterlimit:4;stroke-dasharray:none;stroke-dashoffset:0;stroke-opacity:1;-inkscape-stroke:none"
       d="m 184.92815,196.25067 -2.90998,80.23222"
       id="path87" />
    <path
       style="font-variation-settings:normal;opacity:1;vector-effect:none;fill:#1a1a1a;fill-opacity:1;stroke:#1a1a1a;stroke-width:0.307956;stroke-linecap:butt;stroke-linejoin:miter;stroke-miterlimit:4;stroke-dasharray:none;stroke-dashoffset:0;stroke-opacity:1;-inkscape-stroke:none"
       d="m 182.01817,276.48289 -52.79528,-1.66284"
       id="path88" />
    <path
       style="font-variation-settings:normal;opacity:1;vector-effect:none;fill:#000080;fill-opacity:1;stroke:#1a1a1a;stroke-width:0.307956;stroke-linecap:butt;stroke-linejoin:miter;stroke-miterlimit:4;stroke-dasharray:none;stroke-dashoffset:0;stroke-opacity:1;-inkscape-stroke:none"
       id="path91"
       d="m 144.30229,250.82817 c 0.68666,0.73735 1.21215,1.59611 1.70698,2.46828 0.42123,0.81189 0.88882,1.5964 1.35285,2.38406 0.43597,0.67049 0.85542,1.35198 1.29308,2.02137 0.50122,0.80637 0.94243,1.65224 1.36507,2.50263 0.50076,1.07497 0.99636,2.1517 1.45532,3.24535 0.31737,0.85442 0.66858,1.69585 1.01242,2.53998 0.31574,0.89842 0.56015,1.81862 0.84825,2.72574 0.17946,0.77622 0.45182,1.52575 0.65647,2.29459 0.27214,0.86577 0.44701,1.75154 0.54856,2.65203 0.0461,0.57485 0.0269,0.28813 0.0579,0.86015 0,0 4.07767,2.05245 4.07767,2.05245 v 0 c -0.0262,-0.58694 -0.009,-0.29228 -0.0495,-0.88396 -0.0881,-0.91364 -0.23353,-1.8201 -0.50653,-2.69893 -0.17297,-0.79445 -0.50651,-1.53395 -0.66233,-2.3332 -0.28957,-0.91216 -0.57162,-1.82623 -0.82359,-2.74936 -0.33229,-0.86222 -0.72492,-1.69802 -1.04554,-2.56356 -0.45273,-1.10081 -0.95096,-2.17847 -1.43033,-3.26751 -0.4263,-0.85844 -0.84948,-1.71583 -1.32254,-2.5497 -0.45322,-0.6505 -0.81358,-1.35914 -1.30245,-1.98516 -0.43594,-0.81039 -0.97328,-1.5607 -1.37725,-2.38934 -0.46238,-0.8729 -0.95965,-1.77594 -1.6266,-2.50397 z" />
    <text
       xml:space="preserve"
       style="font-style:normal;font-variant:normal;font-weight:normal;font-stretch:normal;font-size:8.21219px;line-height:normal;font-family:Sans;-inkscape-font-specification:'Sans, Normal';font-variant-ligatures:normal;font-variant-position:normal;font-variant-caps:normal;font-variant-numeric:normal;font-variant-alternates:normal;font-variant-east-asian:normal;font-feature-settings:normal;font-variation-settings:normal;text-indent:0;text-align:start;text-decoration-line:none;text-decoration-style:solid;text-decoration-color:#000000;letter-spacing:normal;word-spacing:normal;text-transform:none;writing-mode:lr-tb;direction:ltr;text-orientation:mixed;dominant-baseline:auto;baseline-shift:baseline;white-space:pre;opacity:1;vector-effect:none;fill:#000080;fill-opacity:1;stroke:#1a1a1a;stroke-width:0.307956;stroke-linecap:butt;stroke-linejoin:miter;stroke-miterlimit:4;stroke-dasharray:none;stroke-dashoffset:0;stroke-opacity:1;-inkscape-stroke:none"
       x="133.91748"
       y="271.42303"
       id="text91"><tspan
         sodipodi:role="line"
         id="tspan91"
         style="font-weight:normal;stroke-width:0.307956"
         x="133.91748"
         y="271.42303">pitch</tspan></text>
    <text
       xml:space="preserve"
       style="font-style:normal;font-variant:normal;font-weight:normal;font-stretch:normal;font-size:8.21219px;line-height:normal;font-family:Sans;-inkscape-font-specification:'Sans, Normal';font-variant-ligatures:normal;font-variant-position:normal;font-variant-caps:normal;font-variant-numeric:normal;font-variant-alternates:normal;font-variant-east-asian:normal;font-feature-settings:normal;font-variation-settings:normal;text-indent:0;text-align:start;text-decoration-line:none;text-decoration-style:solid;text-decoration-color:#000000;letter-spacing:normal;word-spacing:normal;text-transform:none;writing-mode:lr-tb;direction:ltr;text-orientation:mixed;dominant-baseline:auto;baseline-shift:baseline;white-space:pre;opacity:1;vector-effect:none;fill:#1a1a1a;fill-opacity:1;stroke:#1a1a1a;stroke-width:0.307956;stroke-linecap:butt;stroke-linejoin:miter;stroke-miterlimit:4;stroke-dasharray:none;stroke-dashoffset:0;stroke-opacity:1;-inkscape-stroke:none"
       x="149.23128"
       y="235.14691"
       id="text92"><tspan
         sodipodi:role="line"
         id="tspan92"
         style="font-style:normal;font-variant:normal;font-weight:normal;font-stretch:normal;font-size:19.7092px;font-family:Sans;-inkscape-font-specification:'Sans, Normal';font-variant-ligatures:normal;font-variant-caps:normal;font-variant-numeric:normal;font-variant-east-asian:normal;stroke-width:0.307956"
         x="149.23128"
         y="235.14691">1</tspan></text>
    <text
       xml:space="preserve"
       style="font-style:normal;font-variant:normal;font-weight:normal;font-stretch:normal;font-size:19.7092px;line-height:normal;font-family:Sans;-inkscape-font-specification:'Sans, Normal';font-variant-ligatures:normal;font-variant-position:normal;font-variant-caps:normal;font-variant-numeric:normal;font-variant-alternates:normal;font-variant-east-asian:normal;text-indent:0;text-align:start;text-decoration-line:none;text-decoration-style:solid;text-decoration-color:#000000;letter-spacing:normal;word-spacing:normal;text-transform:none;writing-mode:lr-tb;direction:ltr;text-orientation:mixed;dominant-baseline:auto;baseline-shift:baseline;white-space:pre;opacity:1;vector-effect:none;fill:#1a1a1a;fill-opacity:1;stroke:#1a1a1a;stroke-width:0.307956;stroke-linecap:butt;stroke-linejoin:miter;stroke-miterlimit:4;stroke-dasharray:none;stroke-dashoffset:0;stroke-opacity:1;-inkscape-stroke:none"
       x="153.64056"
       y="283.35504"
       id="text93"><tspan
         sodipodi:role="line"
         id="tspan93"
         style="font-style:normal;font-variant:normal;font-weight:normal;font-stretch:normal;font-size:8.21219px;font-family:Sans;-inkscape-font-specification:'Sans, Normal';font-variant-ligatures:normal;font-variant-caps:normal;font-variant-numeric:normal;font-variant-east-asian:normal;stroke-width:0.307956"
         x="153.64056"
         y="283.35504">cos</tspan></text>
    <text
       xml:space="preserve"
       style="font-style:normal;font-variant:normal;font-weight:normal;font-stretch:normal;font-size:8.21219px;line-height:normal;font-family:Sans;-inkscape-font-specification:'Sans, Normal';font-variant-ligatures:normal;font-variant-position:normal;font-variant-caps:normal;font-variant-numeric:normal;font-variant-alternates:normal;font-variant-east-asian:normal;text-indent:0;text-align:start;text-decoration-line:none;text-decoration-style:solid;text-decoration-color:#000000;letter-spacing:normal;word-spacing:normal;text-transform:none;writing-mode:lr-tb;direction:ltr;text-orientation:mixed;dominant-baseline:auto;baseline-shift:baseline;white-space:pre;opacity:1;vector-effect:none;fill:#1a1a1a;fill-opacity:1;stroke:#1a1a1a;stroke-width:0.307956;stroke-linecap:butt;stroke-linejoin:miter;stroke-miterlimit:4;stroke-dasharray:none;stroke-dashoffset:0;stroke-opacity:1;-inkscape-stroke:none"
       x="185.9753"
       y="250.43242"
       id="text94"><tspan
         sodipodi:role="line"
         id="tspan94"
         style="stroke-width:0.307956"
         x="185.9753"
         y="250.43242">sin</tspan></text>
    <path
       style="opacity:1;vector-effect:none;fill:#1a1a1a;fill-opacity:1;stroke:#1a1a1a;stroke-width:0.0814801;stroke-linecap:butt;stroke-linejoin:miter;stroke-miterlimit:4;stroke-dasharray:none;stroke-dashoffset:0;stroke-opacity:1;-inkscape-stroke:none"
       id="path132"
       d="m 122.75598,276.47739 c 0.69983,-0.0214 1.40023,-0.0161 2.10035,-0.0216 1.00953,0.0405 2.00801,-0.0588 3.01056,-0.15732 0.91702,-0.091 1.8384,-0.11917 2.75929,-0.13204 0.73968,3.1e-4 1.46663,-0.16389 2.20246,-0.23192 0.79226,-0.0733 1.58946,-0.022 2.37873,-0.11863 0.94205,-0.13941 1.89248,-0.19387 2.84331,-0.22423 1.0249,-0.0285 2.05026,-0.0229 3.07542,-0.0315 1.44999,-0.016 2.90001,-0.0203 4.35006,-0.0158 1.49826,10e-4 2.9965,0.003 4.49476,8e-5 1.47194,-0.007 2.94386,0.008 4.41579,0.007 1.48628,0.002 2.97252,-0.0105 4.45879,-0.008 1.27714,0.002 2.55427,0.0122 3.83135,0.0256 0.87727,0.009 1.75465,0.003 2.63197,0.005 0.97955,-0.0444 1.94993,0.10626 2.92387,0.18631 0.82235,0.068 1.64678,0.1065 2.47186,0.11232 0.84101,-0.0405 1.66944,0.0526 2.50313,0.14812 0.73296,0.11865 1.48356,0.072 2.21353,0.19691 0.73717,0.13049 1.48529,0.18678 2.2322,0.22489 0.63622,-0.0351 1.24319,0.0852 1.86489,0.19068 0.58969,0.0939 1.18712,0.11314 1.78297,0.12539 0.78392,0.007 1.56782,-0.009 2.35176,-0.0105 0.85532,-0.063 1.69325,0.10208 2.53714,0.20803 0.66581,0.0846 1.33722,0.0864 2.00709,0.0944 0.77465,0.009 1.54931,-0.003 2.32393,-0.009 0.82361,-0.001 1.6472,0.006 2.4708,0.0105 0.61369,0.003 1.22738,0.003 1.84108,0.005 0.63859,0.002 1.27716,-0.002 1.91571,-0.007 1.08307,-0.0105 2.1661,-0.0208 3.2492,-0.0242 1.05794,9.3e-4 2.11581,0.0119 3.17368,0.0219 0.34808,0.003 0.69618,0.006 1.04428,0.007 0,0 -3.68924,-2.68039 -3.68924,-2.68039 v 0 c -0.34158,0.002 -0.68316,0.003 -1.02473,0.007 -1.0378,0.0105 -2.07558,0.0211 -3.11346,0.0219 -1.10533,-0.004 -2.21059,-0.0142 -3.31589,-0.0242 -0.64522,-0.006 -1.29046,-0.009 -1.93572,-0.007 -0.60982,3.2e-4 -1.21965,9.3e-4 -1.82947,0.005 -0.81275,0.005 -1.62549,0.0135 -2.43826,0.0133 -0.78385,-0.005 -1.56769,-0.0128 -2.35151,-0.0205 -0.66014,-0.0143 -1.32012,-0.046 -1.97549,-0.13107 -0.84524,-0.10289 -1.68964,-0.18326 -2.54294,-0.14281 -0.79543,3e-5 -1.5909,-0.008 -2.386,-0.0322 -0.58432,-0.024 -1.16825,-0.0661 -1.74408,-0.17367 -0.62496,-0.10383 -1.25019,-0.12998 -1.88326,-0.14236 -0.74169,-0.0474 -1.47907,-0.1301 -2.21279,-0.24943 -0.73099,-0.0627 -1.46576,-0.0804 -2.19446,-0.17283 -0.84766,-0.0875 -1.69519,-0.14764 -2.5482,-0.12906 -0.80724,-0.0198 -1.61483,-0.0416 -2.41951,-0.1136 -0.98634,-0.09 -1.9722,-0.20328 -2.9647,-0.16783 -0.87269,0.002 -1.74543,-0.005 -2.61809,0.005 -1.25355,0.0136 -2.50715,0.0227 -3.76078,0.0256 -1.49395,0.001 -2.98787,-0.0105 -4.48182,-0.008 -1.46608,-0.001 -2.93212,0.0137 -4.39818,0.006 -1.49868,-0.003 -2.99733,-10e-4 -4.496,-10e-4 -1.46623,0.003 -2.9324,-0.003 -4.39854,-0.0186 -1.03282,-0.006 -2.06583,-5e-5 -3.09813,0.0362 -0.96032,0.0448 -1.91906,0.10696 -2.87304,0.23015 -0.8006,0.0427 -1.60429,0.0251 -2.40266,0.10929 -0.71926,0.0805 -1.43245,0.23266 -2.1598,0.21734 -0.92428,0.0262 -1.84821,0.0673 -2.76771,0.17021 -0.9984,0.10359 -1.99585,0.14868 -2.99993,0.10894 -0.72001,-0.006 -1.44028,-6.2e-4 -2.16005,-0.0216 z" />
    <path
       style="opacity:1;vector-effect:none;fill:#1a1a1a;fill-opacity:1;stroke:#1a1a1a;stroke-width:0.0814801;stroke-linecap:butt;stroke-linejoin:miter;stroke-miterlimit:4;stroke-dasharray:none;stroke-dashoffset:0;stroke-opacity:1;-inkscape-stroke:none"
       id="path133"
       d="m 129.52979,284.51821 c 0.0386,-0.89568 0.14295,-1.78969 0.26055,-2.67865 0.12554,-1.09735 0.34457,-2.1808 0.46967,-3.2782 0.15834,-0.85376 0.28382,-1.70961 0.35519,-2.57501 0.0643,-0.92336 0.16634,-1.84654 0.28148,-2.76533 0.13953,-1.13717 0.28729,-2.27296 0.43012,-3.40979 0.13272,-1.18118 0.30838,-2.35531 0.40461,-3.54056 0.0768,-1.15049 0.0928,-2.30415 0.10359,-3.45684 0.006,-0.93882 -0.008,-1.87418 0.0837,-2.80912 0.1256,-1.16635 0.15441,-2.33993 0.16841,-3.512 0.007,-1.41425 0.02,-2.82846 0.0272,-4.24271 0.006,-1.11255 0.0158,-2.22508 0.0179,-3.33766 0.009,-1.00453 -9.3e-4,-2.00912 -0.005,-3.01367 0.0395,-1.20456 -0.0972,-2.40191 -0.18266,-3.60127 -0.0758,-1.14826 -0.0991,-2.29938 -0.10324,-3.4499 0.0314,-0.9781 -0.0229,-1.94868 -0.12421,-2.92084 -0.0946,-0.88268 -0.13447,-1.76936 -0.14925,-2.65653 0.019,-0.88673 -0.045,-1.76575 -0.14266,-2.64615 -0.11763,-1.04657 -0.15237,-2.0994 -0.17366,-3.15153 -0.014,-1.22562 -0.0213,-2.45132 -0.0212,-3.67702 0.005,-1.2153 8e-5,-2.43066 0.0119,-3.64592 0.009,-0.87684 0.0175,-1.75366 0.0266,-2.6305 0.0105,-0.6681 0.002,-1.33616 0.002,-2.00427 -0.003,-0.70685 -0.002,-1.41367 9.3e-4,-2.12054 0.003,-0.61694 0.005,-1.23388 0.006,-1.85084 8e-5,-0.0985 1.5e-4,-0.19682 2.3e-4,-0.29523 0,0 -4.07044,-2.07398 -4.07044,-2.07398 v 0 c 8e-5,0.0985 1.5e-4,0.19697 2.2e-4,0.29545 6.2e-4,0.61879 0.002,1.23758 0.006,1.85636 0.003,0.70715 0.005,1.41427 9.3e-4,2.12141 6.1e-4,0.66892 -0.008,1.3378 0.002,2.00669 0.009,0.88574 0.0177,1.77147 0.0261,2.65719 0.0116,1.21877 0.005,2.43763 0.008,3.65642 -6.2e-4,1.22507 -0.0121,2.4501 0.001,3.67514 0.0121,1.05846 0.0193,2.11853 0.12535,3.17276 0.0887,0.86798 0.18487,1.73062 0.14644,2.60553 0.0248,0.90033 0.0497,1.80187 0.15016,2.69766 0.0978,0.96225 0.19198,1.91964 0.15299,2.88924 0.0218,1.16357 0.0462,2.32721 0.12277,3.48882 0.0795,1.18604 0.21138,2.37079 0.17147,3.56098 -0.005,1.00299 -0.014,2.00603 -0.005,3.00901 0.003,1.11911 0.0144,2.23817 0.0212,3.35725 0.007,1.41297 0.0201,2.82631 -0.0148,4.23901 -0.0333,1.15074 -0.0677,2.30342 -0.21121,3.4469 -0.10778,0.95216 -0.10475,1.90276 -0.0825,2.86054 -0.001,1.14533 -0.001,2.29147 -0.0754,3.43501 -0.0868,1.18008 -0.25899,2.34761 -0.39532,3.52207 -0.13875,1.13284 -0.29943,2.26257 -0.44447,3.39447 -0.14134,0.91995 -0.24619,1.85025 -0.32235,2.77707 -0.0563,0.86466 -0.17607,1.72023 -0.32855,2.57315 -0.10533,1.09771 -0.29183,2.18165 -0.44783,3.27244 -0.13121,0.89465 -0.22204,1.79471 -0.38822,2.68345 z" />
    <path
       style="opacity:1;vector-effect:none;fill:#1a1a1a;fill-opacity:1;stroke:#1a1a1a;stroke-width:0.0814801;stroke-linecap:butt;stroke-linejoin:miter;stroke-miterlimit:4;stroke-dasharray:none;stroke-dashoffset:0;stroke-opacity:1;-inkscape-stroke:none"
       id="path134"
       d="m 123.97204,216.39762 c 0.43951,-1.34921 0.90475,-2.6897 1.36854,-4.03082 0.57515,-1.70575 1.17463,-3.40363 1.86931,-5.06477 0.33445,-0.82013 0.66463,-1.64134 1.01336,-2.45552 0.10697,-0.16612 0.14385,-0.62488 0.36146,-0.72431 0.18292,-0.0836 0.82159,0.4739 0.89177,0.52239 -1.06774,-0.59555 -2.10277,-1.25397 -3.20324,-1.78663 -0.29165,-0.14118 0.51464,0.39431 0.76116,0.60459 1.13581,0.96873 2.1063,2.08773 3.05613,3.23356 1.12406,1.40964 2.03309,2.96127 2.734,4.61874 0.0658,0.18268 0.13154,0.36537 0.19731,0.54804 0,0 4.05827,1.89257 4.05827,1.89257 v 0 c -0.0712,-0.19411 -0.14244,-0.38819 -0.21366,-0.5823 -0.73372,-1.70797 -1.65788,-3.31397 -2.80175,-4.7844 -0.93206,-1.15308 -1.88456,-2.27742 -2.97324,-3.28811 -0.226,-0.20981 -0.43474,-0.44493 -0.6944,-0.61127 -1.4468,-0.92685 -2.94294,-1.77434 -4.41441,-2.66151 -0.18531,-0.0809 -0.35895,-0.19694 -0.5559,-0.24268 -0.72361,-0.16805 -1.00859,0.4769 -1.17665,1.0361 -0.33238,0.82964 -0.64203,1.66588 -0.92489,2.51411 -0.62862,1.69617 -1.19613,3.41446 -1.80307,5.11849 -0.4808,1.31509 -0.96883,2.63429 -1.56606,3.90111 z" />
    <path
       style="opacity:1;vector-effect:none;fill:#1a1a1a;fill-opacity:1;stroke:#1a1a1a;stroke-width:0.0814801;stroke-linecap:butt;stroke-linejoin:miter;stroke-miterlimit:4;stroke-dasharray:none;stroke-dashoffset:0;stroke-opacity:1;-inkscape-stroke:none"
       id="path135"
       d="m 198.30165,281.47457 c 1.39854,-0.10591 2.72442,-0.68623 3.99214,-1.24868 1.54854,-0.68059 2.99219,-1.57086 4.45148,-2.42036 0.72896,-0.44699 1.46059,-0.88832 2.19273,-1.32896 0.24591,-0.28563 1.06575,-0.48885 1.25757,-0.7627 0.0811,-0.11581 0.0982,-0.26506 0.1474,-0.39759 -0.0338,-0.15667 -0.0335,-0.3247 -0.10115,-0.47 -0.38456,-0.8267 -1.67561,-1.6114 -2.4277,-2.04278 -1.53239,-0.87896 -3.07982,-1.7314 -4.61974,-2.5971 -1.36391,-0.61215 -2.78438,-1.07915 -4.16577,-1.64859 -0.1295,-0.0462 -0.25901,-0.0925 -0.38852,-0.1388 0,0 3.57499,2.79411 3.57499,2.79411 v 0 c 0.12104,0.0454 0.24207,0.0909 0.3631,0.13629 1.34362,0.52215 2.73233,0.93488 4.02367,1.58493 -6.03269,-3.60228 -1.41907,-1.0612 -0.29628,0.21616 0.0141,0.0307 0.0632,0.0656 0.0424,0.0923 -0.188,0.23986 -1.01332,0.49335 -1.24886,0.76361 -0.69701,0.46553 -1.41101,0.90444 -2.10618,1.37311 -1.40113,0.88019 -2.79436,1.79225 -4.33089,2.42369 -1.29939,0.52334 -2.65654,1.056 -4.0848,0.96543 z" />
    <text
       xml:space="preserve"
       style="font-style:normal;font-variant:normal;font-weight:bold;font-stretch:normal;font-size:6.71284px;line-height:normal;font-family:Sans;-inkscape-font-specification:'Sans, Bold';font-variant-ligatures:normal;font-variant-position:normal;font-variant-caps:normal;font-variant-numeric:normal;font-variant-alternates:normal;font-variant-east-asian:normal;text-indent:0;text-align:start;text-decoration-line:none;text-decoration-style:solid;text-decoration-color:#000000;letter-spacing:normal;word-spacing:normal;text-transform:none;writing-mode:lr-tb;direction:ltr;text-orientation:mixed;dominant-baseline:auto;baseline-shift:baseline;white-space:normal;opacity:1;vector-effect:none;fill:#1a1a1a;fill-opacity:1;stroke:#1a1a1a;stroke-width:0.0740042;stroke-linecap:butt;stroke-linejoin:miter;stroke-miterlimit:4;stroke-dasharray:none;stroke-dashoffset:0;stroke-opacity:1;-inkscape-stroke:none"
       x="3.0326123"
       y="293.62775"
       id="text135"><tspan
         sodipodi:role="line"
         id="tspan135"
         style="font-style:normal;font-variant:normal;font-weight:bold;font-stretch:normal;font-size:6.71284px;font-family:Sans;-inkscape-font-specification:'Sans, Bold';font-variant-ligatures:normal;font-variant-caps:normal;font-variant-numeric:normal;font-variant-east-asian:normal;stroke-width:0.0740042"
         x="3.0326123"
         y="293.62775"><tspan
   style="fill:#d40000;stroke-width:0.0740042"
   id="tspan136">viewerObject</tspan>.<tspan
   style="fill:#ff2a2a;stroke-width:0.0740042"
   id="tspan137">transform</tspan>.<tspan
   style="fill:#ff8080;stroke-width:0.0740042"
   id="tspan138">rotation</tspan> = <tspan
   style="fill:#ff7f2a;stroke-width:0.0740042"
   id="tspan139">glm::vec3</tspan>(<tspan
   style="fill:#000080;stroke-width:0.0740042"
   id="tspan140">pitch</tspan>, <tspan
   style="fill:#000080;stroke-width:0.0740042"
   id="tspan141">yaw</tspan>, 0.0f);</tspan></text>
    <text
       xml:space="preserve"
       style="font-style:normal;font-variant:normal;font-weight:bold;font-stretch:normal;font-size:6.35px;line-height:normal;font-family:Sans;-inkscape-font-specification:'Sans, Bold';font-variant-ligatures:normal;font-variant-position:normal;font-variant-caps:normal;font-variant-numeric:normal;font-variant-alternates:normal;font-variant-east-asian:normal;text-indent:0;text-align:start;text-decoration-line:none;text-decoration-style:solid;text-decoration-color:#000000;letter-spacing:normal;word-spacing:normal;text-transform:none;writing-mode:lr-tb;direction:ltr;text-orientation:mixed;dominant-baseline:auto;baseline-shift:baseline;white-space:normal;opacity:1;vector-effect:none;fill:#000080;fill-opacity:1;stroke:#1a1a1a;stroke-width:0.0700042;stroke-linecap:butt;stroke-linejoin:miter;stroke-miterlimit:4;stroke-dasharray:none;stroke-dashoffset:0;stroke-opacity:1;-inkscape-stroke:none"
       x="233.52583"
       y="219.5793"
       id="text142"><tspan
         sodipodi:role="line"
         id="tspan142"
         style="stroke-width:0.0700042"
         x="233.52583"
         y="219.5793" /></text>
    <path
       style="opacity:1;vector-effect:none;fill:#000080;fill-opacity:1;stroke:#1a1a1a;stroke-width:0.0700042;stroke-linecap:butt;stroke-linejoin:miter;stroke-miterlimit:4;stroke-dasharray:none;stroke-dashoffset:0;stroke-opacity:1;-inkscape-stroke:none"
       d="M -3.1983219,91.648395 210.96494,89.627989"
       id="path142" />
    <path
       style="opacity:1;vector-effect:none;fill:#000080;fill-opacity:1;stroke:#1a1a1a;stroke-width:0.0700042;stroke-linecap:butt;stroke-linejoin:miter;stroke-miterlimit:4;stroke-dasharray:none;stroke-dashoffset:0;stroke-opacity:1;-inkscape-stroke:none"
       d="m -4.713628,194.68921 221.739788,-1.0102"
       id="path143" />
  </g>
</svg>
